<svg xmlns="http://www.w3.org/2000/svg" version="1.1" xmlns:xlink="http://www.w3.org/1999/xlink" xmlns:svgjs="http://svgjs.dev/svgjs" viewBox="0 0 2400 800"><defs><linearGradient x1="50%" y1="0%" x2="50%" y2="100%" id="oooscillate-grad"><stop stop-color="hsl(118, 100%, 50%)" stop-opacity="1" offset="0%"></stop><stop stop-color="hsl(61, 91%, 55%)" stop-opacity="1" offset="100%"></stop></linearGradient></defs><g stroke-width="2" stroke="url(#oooscillate-grad)" fill="none" stroke-linecap="round"><path d="M 0 560 Q 600 -100 1200 400 Q 1800 900 2400 560" opacity="0.05"></path><path d="M 0 532 Q 600 -100 1200 400 Q 1800 900 2400 532" opacity="0.10"></path><path d="M 0 504 Q 600 -100 1200 400 Q 1800 900 2400 504" opacity="0.15"></path><path d="M 0 476 Q 600 -100 1200 400 Q 1800 900 2400 476" opacity="0.20"></path><path d="M 0 448 Q 600 -100 1200 400 Q 1800 900 2400 448" opacity="0.25"></path><path d="M 0 420 Q 600 -100 1200 400 Q 1800 900 2400 420" opacity="0.30"></path><path d="M 0 392 Q 600 -100 1200 400 Q 1800 900 2400 392" opacity="0.35"></path><path d="M 0 364 Q 600 -100 1200 400 Q 1800 900 2400 364" opacity="0.40"></path><path d="M 0 336 Q 600 -100 1200 400 Q 1800 900 2400 336" opacity="0.45"></path><path d="M 0 308 Q 600 -100 1200 400 Q 1800 900 2400 308" opacity="0.50"></path><path d="M 0 280 Q 600 -100 1200 400 Q 1800 900 2400 280" opacity="0.55"></path><path d="M 0 252 Q 600 -100 1200 400 Q 1800 900 2400 252" opacity="0.60"></path><path d="M 0 224 Q 600 -100 1200 400 Q 1800 900 2400 224" opacity="0.65"></path><path d="M 0 196 Q 600 -100 1200 400 Q 1800 900 2400 196" opacity="0.70"></path><path d="M 0 168 Q 600 -100 1200 400 Q 1800 900 2400 168" opacity="0.75"></path><path d="M 0 140 Q 600 -100 1200 400 Q 1800 900 2400 140" opacity="0.80"></path><path d="M 0 112 Q 600 -100 1200 400 Q 1800 900 2400 112" opacity="0.85"></path><path d="M 0 84 Q 600 -100 1200 400 Q 1800 900 2400 84" opacity="0.90"></path><path d="M 0 56 Q 600 -100 1200 400 Q 1800 900 2400 56" opacity="0.95"></path></g></svg>